# xmcd
#
# Track frame offsets: 
#        150
#        28472
#        42685
#        79612
#        100727
#        124842
#        144602
#        157942
#        188875
#        206092
#        225142
#        240517
#
# Disc length: 3486 seconds
#
# Revision: 3
# Processed by: cddbd v1.5.2PL0 Copyright (c) Steve Scherf et al.
# Submitted via: ExactAudioCopy v1.0b4
#
DISCID=9c0d9c0c
DTITLE=Smokin' Joe Kubek and Bnois King - Cryin' for the Moon
DYEAR=1995
DGENRE=Texas Blues
TTITLE0=In One Hand (and Out The Other)
TTITLE1=You're My Brand
TTITLE2=You Haven't Hurt Me
TTITLE3=Corn Palace
TTITLE4=If It's The Last Thing I Do
TTITLE5=One More Song
TTITLE6=Cryin' For The Moon
TTITLE7=Changes Made
TTITLE8=We Had To Wait
TTITLE9=Step On It
TTITLE10=You're So Hard To Understand
TTITLE11=The Life You Save (Could Be Mine)
EXTD=
EXTT0=
EXTT1=
EXTT2=
EXTT3=
EXTT4=
EXTT5=
EXTT6=
EXTT7=
EXTT8=
EXTT9=
EXTT10=
EXTT11=
PLAYORDER=
